<?xml version="1.0" encoding="UTF-8"?>
<svg width="700pt" height="700pt" version="1.1" viewBox="0 0 600 660" xmlns="http://www.w3.org/2000/svg" xmlns:xlink="http://www.w3.org/1999/xlink">
 <g>
  <path d="m283.72 304.29v-40.227c0-0.84375-0.11328-1.6641-0.29297-2.4531-2.9844-21.699-44.805-29.52-80.91-29.52-36.098 0.003906-77.918 7.8203-80.906 29.516-0.17969 0.79688-0.29297 1.6133-0.29297 2.4531v40.227c0 23.598 43.742 31.977 81.199 31.977 37.461-0.003906 81.203-8.375 81.203-31.973zm-24.711-40.23c-0.023438 0.015625-0.0625 0.027344-0.085938 0.042969-0.82422 0.46094-1.8242 0.92969-2.9453 1.4062-0.16406 0.074219-0.30859 0.14062-0.46875 0.20703-1.1406 0.46875-2.4453 0.94531-3.8594 1.4219-0.27344 0.089844-0.54688 0.18359-0.83594 0.27344-1.4688 0.46875-3.0586 0.93359-4.793 1.3906-0.29297 0.074218-0.60547 0.15234-0.90625 0.22266-1.8633 0.46484-3.8359 0.92969-5.9805 1.3477-0.066407 0.011719-0.14062 0.023438-0.20703 0.039062-2.1211 0.41406-4.4141 0.80078-6.7969 1.1602-0.35156 0.050781-0.69922 0.11328-1.0586 0.16406-2.375 0.33594-4.8945 0.63281-7.5156 0.89062-0.50391 0.050782-1.0117 0.10156-1.5234 0.14453-2.6836 0.24219-5.4727 0.44141-8.3945 0.58203-0.45312 0.023437-0.92578 0.039062-1.3828 0.054687-3.1211 0.12891-6.332 0.22266-9.7227 0.22266-3.3867 0-6.6016-0.089843-9.7227-0.22266-0.46094-0.015625-0.92578-0.035156-1.3789-0.054687-2.9219-0.14062-5.7188-0.34766-8.3984-0.58203-0.50781-0.042969-1.0117-0.09375-1.5195-0.14453-2.625-0.25781-5.1523-0.55469-7.5312-0.89453-0.35156-0.050781-0.6875-0.10547-1.0352-0.15625-2.4062-0.35938-4.7109-0.74609-6.8477-1.1641-0.054687-0.011718-0.11719-0.015624-0.16797-0.027343-2.1602-0.42578-4.1445-0.89062-6.0156-1.3594-0.28516-0.074219-0.58984-0.14062-0.86719-0.21875-1.7461-0.45312-3.3477-0.92578-4.8203-1.3945-0.27344-0.089843-0.54297-0.17969-0.8125-0.26953-1.4219-0.47656-2.7344-0.95312-3.875-1.4297-0.16406-0.066406-0.30078-0.13281-0.46484-0.20312-1.1211-0.48047-2.1289-0.95703-2.9531-1.4102-0.023438-0.011718-0.0625-0.027343-0.085938-0.042968 7.3516-4.1094 26.969-9.5703 56.488-9.5703 29.52 0 49.133 5.4648 56.484 9.5742zm-115.29 23.387c0.58203 0.22266 1.2266 0.40234 1.8242 0.61719 1.1602 0.41016 2.3203 0.81641 3.5352 1.1875 0.89062 0.27344 1.8047 0.53125 2.7227 0.78906 1.2305 0.34766 2.4766 0.67578 3.7539 0.99219 0.95703 0.23438 1.9258 0.46094 2.9062 0.67188 1.3047 0.29297 2.625 0.56641 3.9648 0.81641 1.0039 0.19141 2 0.375 3.0234 0.55469 1.3789 0.23438 2.7656 0.45312 4.168 0.66016 1.0195 0.14453 2.0312 0.30078 3.0703 0.4375 1.4453 0.19141 2.9062 0.35156 4.3672 0.50781 1.0195 0.11328 2.0273 0.23047 3.0508 0.32422 1.5352 0.14453 3.0703 0.25781 4.6133 0.37109 0.95703 0.066406 1.9102 0.15234 2.8711 0.20703 1.6953 0.10547 3.3867 0.17187 5.0859 0.23437 0.8125 0.035157 1.625 0.085938 2.4297 0.10547 2.4922 0.074219 4.9688 0.11719 7.4219 0.11719s4.9297-0.039063 7.4219-0.11719c0.8125-0.023437 1.6172-0.074219 2.4297-0.10547 1.6914-0.066406 3.3828-0.13281 5.0859-0.23437 0.95703-0.054688 1.9141-0.14063 2.8711-0.20703 1.5469-0.11328 3.0781-0.23047 4.6133-0.37109 1.0234-0.09375 2.0312-0.21094 3.0508-0.32422 1.4609-0.15625 2.918-0.32031 4.3672-0.50781 1.0352-0.13281 2.0508-0.28516 3.0703-0.4375 1.3984-0.20703 2.793-0.42578 4.168-0.66016 1.0195-0.17188 2.0234-0.35938 3.0234-0.55469 1.3438-0.25781 2.6602-0.53125 3.9648-0.81641 0.98047-0.21875 1.9492-0.4375 2.9062-0.67188 1.2773-0.3125 2.5195-0.64453 3.7539-0.99219 0.91797-0.25781 1.832-0.51562 2.7227-0.78906 1.2148-0.375 2.375-0.77734 3.5352-1.1875 0.59766-0.21094 1.2422-0.39062 1.8242-0.61719v15.266c-4.5234 4.1055-25.277 11.156-58.801 11.156-33.523 0-54.27-7.043-58.801-11.156l-0.003906-15.266z"/>
  <path d="m567.48 16.801h-53.379c-4.5117 0-8.5859 2.7109-10.332 6.8711l-168.14 401.29c-0.875 2.0898-2.9023 3.4375-5.1641 3.4375h-119.13c-18.105 0-34.324 10.793-41.316 27.484l-10.562 25.199c-5.8086 13.867-4.3047 29.617 4.0195 42.129 8.3242 12.52 22.266 19.988 37.297 19.988h155.53c4.5117 0 8.5859-2.7109 10.332-6.8711l211.18-504c1.4492-3.4609 1.0703-7.4102-1.0078-10.535-2.0742-3.1172-5.5742-4.9922-9.3203-4.9922zm-218.64 504h-148.07c-7.6289 0-14.426-3.6406-18.648-9.9922-4.2227-6.3516-4.957-14.027-2.0117-21.066l10.562-25.199c3.5-8.3438 11.602-13.742 20.66-13.742h119.13c11.316 0 21.453-6.7422 25.828-17.18l165.26-394.42h29.094z"/>
 </g>
</svg>
