<svg width="70" height="70" viewBox="0 0 70 70" fill="none" xmlns="http://www.w3.org/2000/svg">
<path d="M35.0002 69.1666C30.2738 69.1666 25.8321 68.2691 21.6752 66.4743C17.5182 64.6794 13.9022 62.2456 10.8272 59.1728C7.75225 56.0978 5.31844 52.4819 3.52583 48.3249C1.73322 44.168 0.835774 39.7263 0.833496 34.9999C0.833496 30.2735 1.73094 25.8319 3.52583 21.6749C5.32072 17.518 7.75452 13.902 10.8272 10.827C13.9022 7.752 17.5182 5.3182 21.6752 3.52559C25.8321 1.73297 30.2738 0.83553 35.0002 0.833252C39.7266 0.833252 44.1682 1.7307 48.3252 3.52559C52.4821 5.32047 56.0981 7.75428 59.1731 10.827C62.2481 13.902 64.683 17.518 66.4779 21.6749C68.2728 25.8319 69.1691 30.2735 69.1668 34.9999C69.1668 39.7263 68.2694 44.168 66.4745 48.3249C64.6796 52.4819 62.2458 56.0978 59.1731 59.1728C56.0981 62.2478 52.4821 64.6828 48.3252 66.4777C44.1682 68.2726 39.7266 69.1689 35.0002 69.1666ZM35.0002 62.3333C42.6307 62.3333 49.0939 59.6853 54.3897 54.3895C59.6856 49.0937 62.3335 42.6305 62.3335 34.9999C62.3335 27.3694 59.6856 20.9062 54.3897 15.6103C49.0939 10.3145 42.6307 7.66659 35.0002 7.66659C27.3696 7.66659 20.9064 10.3145 15.6106 15.6103C10.3147 20.9062 7.66683 27.3694 7.66683 34.9999C7.66683 42.6305 10.3147 49.0937 15.6106 54.3895C20.9064 59.6853 27.3696 62.3333 35.0002 62.3333ZM41.8335 52.0833C42.8016 52.0833 43.6136 51.7553 44.2696 51.0993C44.9256 50.4433 45.2524 49.6324 45.2502 48.6666C45.2502 47.6985 44.9222 46.8865 44.2662 46.2305C43.6102 45.5745 42.7993 45.2476 41.8335 45.2499H31.5835V38.4166H38.4168C40.296 38.4166 41.9052 37.7469 43.2446 36.4076C44.5839 35.0683 45.2524 33.4601 45.2502 31.5833V24.7499C45.2502 22.8708 44.5805 21.2615 43.2412 19.9222C41.9018 18.5828 40.2937 17.9143 38.4168 17.9166H28.1668C27.1988 17.9166 26.3867 18.2446 25.7307 18.9006C25.0747 19.5566 24.7479 20.3675 24.7502 21.3333C24.7502 22.3013 25.0782 23.1133 25.7342 23.7693C26.3902 24.4253 27.2011 24.7522 28.1668 24.7499H38.4168V31.5833H31.5835C29.7043 31.5833 28.0951 32.2529 26.7557 33.5923C25.4164 34.9316 24.7479 36.5397 24.7502 38.4166V48.6666C24.7502 49.6346 25.0782 50.4467 25.7342 51.1027C26.3902 51.7587 27.2011 52.0855 28.1668 52.0833H41.8335Z" fill="#9F5DCF"/>
</svg>
