<svg width="45" height="45" viewBox="0 0 45 45" fill="none" xmlns="http://www.w3.org/2000/svg">
<path d="M22.5 31.5L25.65 28.35L22.05 24.75H31.5V20.25H22.05L25.65 16.65L22.5 13.5L13.5 22.5L22.5 31.5ZM22.5 45C19.3875 45 16.4625 44.409 13.725 43.227C10.9875 42.045 8.60625 40.4422 6.58125 38.4187C4.55625 36.3937 2.9535 34.0125 1.773 31.275C0.5925 28.5375 0.0015 25.6125 0 22.5C0 19.3875 0.591 16.4625 1.773 13.725C2.955 10.9875 4.55775 8.60625 6.58125 6.58125C8.60625 4.55625 10.9875 2.9535 13.725 1.773C16.4625 0.5925 19.3875 0.0015 22.5 0C25.6125 0 28.5375 0.591 31.275 1.773C34.0125 2.955 36.3937 4.55775 38.4187 6.58125C40.4437 8.60625 42.0472 10.9875 43.2292 13.725C44.4112 16.4625 45.0015 19.3875 45 22.5C45 25.6125 44.409 28.5375 43.227 31.275C42.045 34.0125 40.4422 36.3937 38.4187 38.4187C36.3937 40.4437 34.0125 42.0472 31.275 43.2292C28.5375 44.4112 25.6125 45.0015 22.5 45ZM22.5 40.5C27.525 40.5 31.7812 38.7562 35.2687 35.2687C38.7562 31.7812 40.5 27.525 40.5 22.5C40.5 17.475 38.7562 13.2187 35.2687 9.73125C31.7812 6.24375 27.525 4.5 22.5 4.5C17.475 4.5 13.2187 6.24375 9.73125 9.73125C6.24375 13.2187 4.5 17.475 4.5 22.5C4.5 27.525 6.24375 31.7812 9.73125 35.2687C13.2187 38.7562 17.475 40.5 22.5 40.5Z" fill="#C79E21"/>
</svg>
