<svg width="676" height="454" viewBox="0 0 676 454" fill="none" xmlns="http://www.w3.org/2000/svg">
<path d="M474.915 451.701C513.692 451.701 555.204 450.544 592.365 438.678C611.127 432.687 629.576 422.263 646.749 412.692C658.951 405.89 666.239 399.722 671.348 386.585C675.178 376.737 674.544 366.291 666.766 358.609C646.08 338.178 612.895 329.728 586.215 321.348C572.539 317.053 558.303 314.994 544.372 311.701C524.191 306.931 504.065 302.076 483.898 297.231C435.207 285.532 386.083 275.988 337.025 266.06C290.73 256.69 244.382 247.899 198.05 238.747C182.094 235.595 165.305 232.696 149.816 227.653C137.184 223.54 125.225 217.355 112.615 213.062C104.19 210.194 95.0049 208.616 86.9911 204.682C78.6614 200.592 70.556 196.617 62.0299 192.924C44.7471 185.44 20.1966 176.287 11.5045 157.955C4.50641 143.195 0.127863 126.029 5.05322 110.022C10.1629 93.4154 22.5941 78.2439 35.0187 66.4303C55.0283 47.4049 82.8984 35.806 106.646 22.1754C114.667 17.572 122.092 13.1619 129.678 7.94635C132.02 6.33618 134.32 5.11609 135.225 2.39941" stroke="#070707" stroke-width="4" stroke-linecap="round"/>
</svg>
