<svg width="71" height="71" viewBox="0 0 71 71" fill="none" xmlns="http://www.w3.org/2000/svg">
<path d="M35.5002 70.9166C30.6009 70.9166 25.9967 69.9863 21.6877 68.1258C17.3786 66.2652 13.6304 63.7424 10.4429 60.5572C7.25537 57.3697 4.73252 53.6214 2.87433 49.3124C1.01614 45.0034 0.0858572 40.3992 0.0834961 35.4999C0.0834961 30.6006 1.01377 25.9964 2.87433 21.6874C4.73489 17.3784 7.25773 13.6301 10.4429 10.4426C13.6304 7.25513 17.3786 4.73228 21.6877 2.87409C25.9967 1.01589 30.6009 0.0856131 35.5002 0.083252C40.3995 0.083252 45.0036 1.01353 49.3127 2.87409C53.6217 4.73464 57.37 7.25749 60.5575 10.4426C63.745 13.6301 66.269 17.3784 68.1295 21.6874C69.9901 25.9964 70.9192 30.6006 70.9168 35.4999C70.9168 40.3992 69.9865 45.0034 68.126 49.3124C66.2654 53.6214 63.7426 57.3697 60.5575 60.5572C57.37 63.7447 53.6217 66.2687 49.3127 68.1293C45.0036 69.9898 40.3995 70.9189 35.5002 70.9166ZM35.5002 63.8333C43.4099 63.8333 50.1095 61.0885 55.5991 55.5989C61.0887 50.1093 63.8335 43.4096 63.8335 35.4999C63.8335 27.5902 61.0887 20.8905 55.5991 15.401C50.1095 9.91138 43.4099 7.16659 35.5002 7.16659C27.5904 7.16659 20.8908 9.91138 15.4012 15.401C9.91162 20.8905 7.16683 27.5902 7.16683 35.4999C7.16683 43.4096 9.91162 50.1093 15.4012 55.5989C20.8908 61.0885 27.5904 63.8333 35.5002 63.8333ZM28.4168 53.2083H39.0418C40.9897 53.2083 42.6579 52.5141 44.0462 51.1258C45.4345 49.7374 46.1275 48.0705 46.1252 46.1249V40.8124C46.1252 39.2777 45.6234 38.0086 44.62 37.0051C43.6165 36.0017 42.3474 35.4999 40.8127 35.4999C42.3474 35.4999 43.6165 34.9982 44.62 33.9947C45.6234 32.9912 46.1252 31.7221 46.1252 30.1874V24.8749C46.1252 22.927 45.431 21.2589 44.0427 19.8705C42.6543 18.4822 40.9874 17.7892 39.0418 17.7916H28.4168C27.4134 17.7916 26.5716 18.1316 25.8916 18.8116C25.2116 19.4916 24.8728 20.3321 24.8752 21.3333C24.8752 22.3367 25.2152 23.1785 25.8952 23.8585C26.5752 24.5385 27.4157 24.8773 28.4168 24.8749H39.0418V31.9583H35.5002C34.4967 31.9583 33.655 32.2983 32.975 32.9783C32.295 33.6583 31.9561 34.4988 31.9585 35.4999C31.9585 36.5034 32.2985 37.3451 32.9785 38.0251C33.6585 38.7051 34.4991 39.0439 35.5002 39.0416H39.0418V46.1249H28.4168C27.4134 46.1249 26.5716 46.4649 25.8916 47.1449C25.2116 47.8249 24.8728 48.6655 24.8752 49.6666C24.8752 50.6701 25.2152 51.5118 25.8952 52.1918C26.5752 52.8718 27.4157 53.2106 28.4168 53.2083Z" fill="#67B7DC"/>
</svg>
