<svg width="72" height="72" viewBox="0 0 72 72" fill="none" xmlns="http://www.w3.org/2000/svg">
<path d="M35.9998 71.8334C31.0429 71.8334 26.3846 70.8922 22.0248 69.0097C17.6651 67.1273 13.8728 64.5748 10.6478 61.3522C7.42275 58.1272 4.87023 54.3348 2.99017 49.9751C1.11012 45.6154 0.168893 40.957 0.166504 36.0001C0.166504 31.0431 1.10773 26.3848 2.99017 22.0251C4.87262 17.6654 7.42514 13.873 10.6478 10.648C13.8728 7.423 17.6651 4.87047 22.0248 2.99042C26.3846 1.11036 31.0429 0.169137 35.9998 0.166748C40.9568 0.166748 45.6151 1.10797 49.9748 2.99042C54.3346 4.87286 58.1269 7.42539 61.3519 10.648C64.5769 13.873 67.1306 17.6654 69.0131 22.0251C70.8955 26.3848 71.8356 31.0431 71.8332 36.0001C71.8332 40.957 70.8919 45.6154 69.0095 49.9751C67.1271 54.3348 64.5745 58.1272 61.3519 61.3522C58.1269 64.5772 54.3346 67.1309 49.9748 69.0133C45.6151 70.8958 40.9568 71.8358 35.9998 71.8334ZM35.9998 64.6667C44.0026 64.6667 50.7811 61.8897 56.3353 56.3355C61.8894 50.7813 64.6665 44.0029 64.6665 36.0001C64.6665 27.9973 61.8894 21.2188 56.3353 15.6647C50.7811 10.1105 44.0026 7.33341 35.9998 7.33341C27.9971 7.33341 21.2186 10.1105 15.6644 15.6647C10.1103 21.2188 7.33317 27.9973 7.33317 36.0001C7.33317 44.0029 10.1103 50.7813 15.6644 56.3355C21.2186 61.8897 27.9971 64.6667 35.9998 64.6667ZM34.2082 25.2501V50.3334C34.2082 51.3487 34.5522 52.2003 35.2402 52.8883C35.9282 53.5763 36.7786 53.9191 37.7915 53.9167C38.8068 53.9167 39.6584 53.5727 40.3464 52.8847C41.0344 52.1967 41.3772 51.3463 41.3748 50.3334V21.6667C41.3748 20.6515 41.0308 19.7998 40.3428 19.1118C39.6548 18.4238 38.8044 18.081 37.7915 18.0834H30.6248C29.6096 18.0834 28.7579 18.4274 28.0699 19.1154C27.3819 19.8034 27.0391 20.6539 27.0415 21.6667C27.0415 22.682 27.3855 23.5337 28.0735 24.2217C28.7615 24.9097 29.6119 25.2525 30.6248 25.2501H34.2082Z" fill="#67B7DC"/>
</svg>
