<?xml version="1.0" encoding="UTF-8"?>
<svg width="1000" height="700" version="1.1" viewBox="0 0 700 700" preserveAspectRatio='none' xmlns="http://www.w3.org/2000/svg" xmlns:xlink="http://www.w3.org/1999/xlink">
 <g>
  <path d="m415.31 212.41-38.621-77.242h-200.43c-32.051 0-57.984-25.93-57.984-58.023v-19.125c0-32.031 25.934-58.023 57.93-58.023h251.03c28.422 0 60.441 18.984 74.062 43.957l93.176 170.82c47.91 10.273 83.801 52.816 83.801 103.83v135.2c0 58.656-47.543 106.2-106.21 106.2h-444.13c-58.684 0-106.21-47.488-106.21-106.2v-135.2c0-58.656 47.543-106.2 106.21-106.2zm224.35 154.48v-48.289c0-37.371-30.23-67.574-67.59-67.574h-444.13c-37.34 0-67.59 30.25-67.59 67.574v48.289zm0 38.617h-579.31v48.289c0 37.371 30.23 67.574 67.59 67.574h444.13c37.34 0 67.59-30.25 67.59-67.574zm-172.26-343.07c-6.8477-12.555-25.859-23.828-40.156-23.828h-251.03c-10.648 0-19.309 8.6797-19.309 19.402v19.125c0 10.762 8.6406 19.402 19.363 19.402h212.36c7.3125 0 14 4.1328 17.27 10.676l52.594 105.19h90.711z"/>
 </g>
</svg>
