<?xml version="1.0" encoding="UTF-8"?>
<svg width="700pt" height="700pt" version="1.1" viewBox="0 0 630 600" xmlns="http://www.w3.org/2000/svg" xmlns:xlink="http://www.w3.org/1999/xlink">
 <g>
  <path d="m240.91 353.32c-7.5391 0-14.465-0.69531-20.684-2.0898-13.352-3.0156-23.086-9.2461-28.938-18.535-12.988-20.516-4.1719-52.008 24.836-88.656 26.922-34.012 68.637-69.738 117.45-100.6 90.508-57.414 202.47-93.688 231.74-47.859 28.973 46-51.68 131.85-142.25 189.29-68.008 43.141-136.34 68.438-182.16 68.449zm275.18-259.25c-38.008 0-102.17 21.105-172.25 65.559-0.003906 0-0.011719 0.003906-0.011719 0.003906-47.039 29.742-87.051 63.938-112.67 96.297-22.883 28.91-31.727 53.777-23.656 66.523 3.043 4.8438 8.7383 8.2227 16.941 10.07 38.086 8.5859 115.55-17.668 188.37-63.848 100.59-63.797 152.57-137.03 136.31-162.84-4.9609-7.7812-16.539-11.766-33.039-11.766z"/>
  <path d="m240.24 413.85c-34.727 0-59.906-10.336-72.582-30.336-8.6953-13.715-10.844-30.723-6.3789-50.535 12.906-57.277 80.535-131.68 172.29-189.54 127.03-80.656 253.54-101.51 287.98-47.543 34.254 54.02-38.625 159.62-165.89 240.42-59.406 37.723-121.37 63.82-174.47 73.508-14.789 2.6914-28.488 4.0234-40.953 4.0234zm308.55-328.88c-49.652 0-124.24 23.406-204.95 74.652-0.011719 0.003906-0.023438 0.011719-0.027344 0.015625-86.328 54.441-152.17 125.8-163.83 177.55-3.3008 14.66-2.0039 26.793 3.8672 36.059 12.582 19.836 46.812 26.316 93.902 17.699 50.73-9.2461 110.26-34.398 167.63-70.82 126.09-80.059 184.53-175.26 160-213.95-8.8594-13.879-28.84-21.211-56.598-21.211z"/>
  <path d="m355.96 272.3c-0.45703 0-0.91797-0.03125-1.3828-0.10547-2.8633-0.41406-5.3828-2.1016-6.8594-4.5859l-10.512-17.699-30.418-1.9141c-3.8594-0.24219-7.1992-2.7852-8.4609-6.4453-1.2617-3.6562-0.19922-7.7148 2.6953-10.285l32.703-29.07 10.996-30c1.4922-4.0898 5.5625-6.6719 9.8789-6.2461l32.082 2.9648 40.266-17.254c3.5781-1.5391 7.707-0.75781 10.488 1.9766 2.7734 2.7227 3.6328 6.8516 2.1562 10.453l-11.449 28.09 11.711 16.809c1.6719 2.3945 2.1562 5.4102 1.332 8.207-0.82422 2.7969-2.8828 5.0586-5.582 6.1602l-40.891 16.594-32.258 29.809c-1.7734 1.6484-4.1016 2.543-6.4961 2.543zm-25.004-41.984 12.508 0.78516c3.1602 0.19922 6.0156 1.9492 7.6328 4.668l7.0508 11.871 24.848-22.957c0.84766-0.78516 1.8281-1.4102 2.8945-1.8438l31.383-12.734-7.8242-11.238c-1.8594-2.668-2.2461-6.0938-1.0117-9.1016l4.6016-11.281-21.035 9.0156c-1.4766 0.62891-3.0586 0.88672-4.6562 0.73047l-27.16-2.5078-9.2852 25.34c-0.54297 1.4844-1.4492 2.8164-2.6289 3.8672z"/>
  <path d="m79.598 343.55c-3.1758 0-6.2812-1.5742-8.1055-4.457-2.8359-4.4688-1.5078-10.391 2.9609-13.219l69.012-43.777c4.457-2.8555 10.387-1.5195 13.23 2.9609 2.8359 4.4688 1.5078 10.391-2.9609 13.219l-69.012 43.777c-1.5898 1.0117-3.3672 1.4961-5.125 1.4961z"/>
  <path d="m174.81 494.05c-3.1758 0-6.2812-1.5742-8.1055-4.457-2.8359-4.4688-1.5078-10.391 2.9609-13.219l69.012-43.777c4.4531-2.8633 10.387-1.5312 13.23 2.9609 2.8359 4.4688 1.5078 10.391-2.9609 13.219l-69.012 43.777c-1.5938 1.0117-3.3711 1.4961-5.125 1.4961z"/>
  <path d="m86.309 401.07c-3.1719 0-6.2695-1.5625-8.0977-4.4375-2.8438-4.4688-1.5312-10.391 2.9336-13.23l32.586-20.77c4.4648-2.8711 10.395-1.5508 13.234 2.9297 2.8438 4.4688 1.5312 10.391-2.9336 13.23l-32.586 20.77c-1.5938 1.0234-3.3789 1.5078-5.1367 1.5078z"/>
  <path d="m108.67 467.52c-3.1758 0-6.2852-1.5742-8.1055-4.457-2.8359-4.4688-1.5078-10.391 2.9648-13.23l32.27-20.441c4.4922-2.8086 10.402-1.4961 13.227 2.9727 2.8359 4.4688 1.5078 10.391-2.9648 13.23l-32.27 20.441c-1.5898 1-3.3711 1.4844-5.1211 1.4844z"/>
 </g>
</svg>
