<?xml version="1.0" encoding="UTF-8"?>
<svg width="100%" height="100%" version="1.1" viewBox="0 0 460 550" xmlns="http://www.w3.org/2000/svg" xmlns:xlink="http://www.w3.org/1999/xlink">
 <g>
  <path d="m350 314.72c-20.16 0-36.961 16.801-36.961 36.961 0 20.16 16.801 36.961 36.961 36.961s36.961-16.801 36.961-36.961c0-20.16-16.801-36.961-36.961-36.961zm0 57.121c-11.199 0-20.16-8.9609-20.16-20.16 0-11.199 8.9609-20.16 20.16-20.16s20.16 8.9609 20.16 20.16c0 11.199-8.9609 20.16-20.16 20.16z"/>
  <path d="m378.56 449.12h-57.117c-4.4805 0-8.3984 3.9219-8.3984 8.3984 0 4.4805 3.9219 8.3984 8.3984 8.3984h57.121c4.4805 0 8.3984-3.9219 8.3984-8.3984 0-4.4805-3.9219-8.3984-8.4023-8.3984z"/>
  <path d="m438.48 364c-10.641-13.441-14.559-31.359-10.641-48.719 1.6797-7.2812 2.2383-14.559 1.1211-21.84-2.2383-25.762-19.602-48.16-44.238-57.121-3.3594-1.1211-6.7188-2.2383-10.641-2.8008l-1.6836-114.8c6.7188-1.1211 11.762-7.2812 11.762-14v-5.6016h1.6797c4.4805 0 8.3984-3.9219 8.3984-8.3984 0-4.4805-3.9219-8.3984-8.3984-8.3984h-1.6797v-11.762h1.6797c4.4805 0 8.3984-3.9219 8.3984-8.3984 0-4.4805-3.9219-8.3984-8.3984-8.3984h-1.6797v-0.5625c0-10.641-8.9609-19.602-19.602-19.602h-28.559c-10.641 0-19.602 8.9609-19.602 19.602v0.55859h-1.6797c-4.4805 0-8.3984 3.9219-8.3984 8.3984 0 4.4805 3.9219 8.3984 8.3984 8.3984h1.6797v11.762h-1.6797c-4.4805 0-8.3984 3.9219-8.3984 8.3984 0 4.4805 3.9219 8.3984 8.3984 8.3984h1.6797v5.6016c0 6.7188 5.0391 12.879 11.762 14l-2.2383 115.36c-3.9219 0.55859-7.2812 1.6797-10.641 2.8008-24.078 8.9609-41.441 31.359-44.238 56.559-0.55859 7.2812 0 14.559 1.1211 21.84 3.9219 17.359 0 35.281-10.641 48.719-14.559 17.922-21.84 40.32-21.84 63.281 0 26.879 11.199 52.078 30.238 70.559s43.68 28 69.441 28h1.6797 17.359c26.879 0.55859 52.078-9.5195 71.68-28 19.039-18.48 30.238-43.68 30.238-70.559 0.55859-22.953-7.2812-45.352-21.84-63.273zm-105.84-310.8c0-1.6797 1.1211-2.8008 2.8008-2.8008h28.559c1.6797 0 2.8008 1.1211 2.8008 2.8008v48.719c-2.8008 0.55859-5.6016 1.6797-7.2812 3.9219-2.8008 2.8008-3.9219 6.1602-3.9219 10.078l3.3594 157.36h-17.359l3.3594-157.36c0-3.9219-1.1211-7.2812-3.9219-10.078-2.2383-2.2383-4.4805-3.3594-7.8398-3.9219l0.003907-48.719zm85.68 432.88c-15.68 15.121-36.398 23.52-58.238 23.52h-1.6797-17.922c-22.398 0.55859-43.68-7.8398-59.359-23.52-16.238-15.68-25.199-36.398-25.199-58.801 0-19.039 6.1602-37.52 17.922-52.641 14-17.359 19.039-40.879 14-63.281-1.1211-5.6016-1.6797-10.641-1.1211-16.238 1.6797-19.039 15.121-35.84 33.039-42.559 1.1211-0.55859 2.8008-1.1211 4.4805-1.1211l-0.55859 39.762h52.078l-0.55859-39.199c1.6797 0.55859 2.8008 0.55859 3.9219 1.1211 18.48 6.7188 31.359 23.52 33.039 42.559 0.55859 5.6016 0 11.199-1.1211 16.238-5.0391 22.398 0 45.922 14 63.281 11.762 15.121 18.48 33.602 17.922 52.641 0.55469 21.84-8.4062 42.559-24.645 58.238z"/>
 </g>
</svg>
